<svg width="312" height="87" viewBox="0 0 312 87" fill="none" xmlns="http://www.w3.org/2000/svg">
<path d="M42.6728 35.1771C42.8776 35.1516 43.0782 35.0965 43.2682 35.0133C43.5362 34.8959 43.7776 34.7248 43.9776 34.5105L64.1997 14.2972C64.429 14.072 64.6044 13.7973 64.7126 13.4939C64.8208 13.1904 64.859 12.8662 64.8243 12.5456C64.7896 12.225 64.6829 11.9164 64.5123 11.6431C64.3418 11.3699 64.1117 11.1391 63.8395 10.9681C63.0263 10.4635 62.1605 9.95867 61.3209 9.48036C60.8846 9.26979 60.5312 8.91783 60.3178 8.48113C60.1044 8.04443 60.0432 7.54839 60.1442 7.07287L60.621 5.33141C60.7642 4.82061 60.7087 4.274 60.4658 3.80234C60.223 3.33069 59.811 2.9693 59.3133 2.79142C57.1273 2.00562 54.8904 1.37133 52.6185 0.892973C52.0909 0.790881 51.5446 0.894167 51.0903 1.18191C50.636 1.46966 50.3077 1.92035 50.1718 2.44272L49.7743 3.94676C49.6454 4.4479 49.3392 4.88441 48.913 5.17461C48.4868 5.46481 47.9698 5.5888 47.4589 5.52337C45.8703 5.31525 44.2724 5.19652 42.6728 5.1674C41.0732 5.19653 39.4753 5.31526 37.8867 5.52338C37.3758 5.58881 36.8588 5.46482 36.4326 5.17462C36.0064 4.88442 35.7002 4.44791 35.5713 3.94677L35.1738 2.44273C35.0379 1.92037 34.7096 1.46967 34.2553 1.18192C33.801 0.894182 33.2547 0.790891 32.7271 0.892987C30.4551 1.37134 28.2183 2.00564 26.0323 2.79143C25.5346 2.96931 25.1226 3.3307 24.8798 3.80235C24.6369 4.274 24.5814 4.82063 24.7246 5.33142L25.2014 7.07289C25.3024 7.54841 25.2412 8.04444 25.0278 8.48114C24.8143 8.91785 24.461 9.26981 24.0247 9.48037C23.1851 9.95868 22.3193 10.4635 21.5061 10.9681C21.2339 11.1391 21.0038 11.3699 20.8332 11.6431C20.6626 11.9164 20.556 12.225 20.5213 12.5456C20.4866 12.8662 20.5248 13.1904 20.633 13.4939C20.7412 13.7973 20.9166 14.072 21.1459 14.2972L41.368 34.5105C41.568 34.7248 41.8094 34.8959 42.0774 35.0133C42.2674 35.0965 42.468 35.1516 42.6728 35.1771Z" fill="#007BD3"/>
<path d="M42.7814 51.9866C42.5765 52.0122 42.3759 52.0672 42.1859 52.1504C41.9179 52.2679 41.6765 52.4389 41.4765 52.6532L21.2544 72.8666C21.0251 73.0918 20.8497 73.3664 20.7415 73.6699C20.6333 73.9733 20.5952 74.2975 20.6298 74.6181C20.6645 74.9387 20.7712 75.2473 20.9418 75.5206C21.1124 75.7938 21.3425 76.0247 21.6146 76.1956C22.4279 76.7002 23.2936 77.205 24.1332 77.6834C24.5696 77.8939 24.9229 78.2459 25.1363 78.6826C25.3498 79.1193 25.4109 79.6153 25.3099 80.0908L24.8331 81.8323C24.69 82.3431 24.7455 82.8897 24.9883 83.3614C25.2311 83.833 25.6432 84.1944 26.1409 84.3723C28.3269 85.1581 30.5637 85.7924 32.8356 86.2707C33.3633 86.3728 33.9096 86.2695 34.3639 85.9818C34.8181 85.6941 35.1465 85.2434 35.2823 84.721L35.6798 83.2169C35.8087 82.7158 36.115 82.2793 36.5411 81.9891C36.9673 81.6989 37.4843 81.5749 37.9953 81.6403C39.5839 81.8485 41.1817 81.9672 42.7814 81.9963C44.381 81.9672 45.9788 81.8484 47.5674 81.6403C48.0784 81.5749 48.5953 81.6989 49.0215 81.9891C49.4477 82.2793 49.7539 82.7158 49.8828 83.2169L50.2803 84.721C50.4162 85.2433 50.7445 85.694 51.1988 85.9818C51.6531 86.2695 52.1994 86.3728 52.7271 86.2707C54.999 85.7924 57.2358 85.1581 59.4218 84.3723C59.9195 84.1944 60.3315 83.833 60.5744 83.3614C60.8172 82.8897 60.8727 82.3431 60.7296 81.8323L60.2527 80.0908C60.1518 79.6153 60.2129 79.1193 60.4263 78.6826C60.6398 78.2459 60.9931 77.8939 61.4295 77.6833C62.269 77.205 63.1348 76.7002 63.9481 76.1956C64.2202 76.0246 64.4503 75.7938 64.6209 75.5206C64.7915 75.2473 64.8982 74.9387 64.9328 74.6181C64.9675 74.2975 64.9293 73.9733 64.8211 73.6698C64.713 73.3664 64.5376 73.0917 64.3083 72.8666L44.0862 52.6532C43.8862 52.4389 43.6448 52.2678 43.3767 52.1504C43.1867 52.0672 42.9862 52.0121 42.7814 51.9866Z" fill="#05C293"/>
<path d="M51.1318 43.5276C51.1573 43.7325 51.2124 43.933 51.2956 44.123C51.413 44.391 51.5841 44.6324 51.7984 44.8325L72.0117 65.0546C72.2369 65.2839 72.5116 65.4592 72.815 65.5674C73.1185 65.6756 73.4427 65.7138 73.7633 65.6791C74.0839 65.6444 74.3925 65.5378 74.6658 65.3672C74.939 65.1966 75.1698 64.9665 75.3408 64.6943C75.8454 63.8811 76.3502 63.0153 76.8285 62.1757C77.0391 61.7394 77.3911 61.3861 77.8278 61.1726C78.2645 60.9592 78.7605 60.898 79.236 60.999L80.9775 61.4759C81.4883 61.619 82.0349 61.5635 82.5065 61.3207C82.9782 61.0778 83.3396 60.6658 83.5175 60.1681C84.3033 57.9821 84.9376 55.7453 85.4159 53.4733C85.518 52.9457 85.4147 52.3994 85.127 51.9451C84.8392 51.4908 84.3885 51.1625 83.8662 51.0266L82.3621 50.6291C81.861 50.5002 81.4245 50.194 81.1343 49.7678C80.8441 49.3416 80.7201 48.8247 80.7855 48.3137C80.9936 46.7251 81.1124 45.1273 81.1415 43.5276C81.1124 41.928 80.9936 40.3301 80.7855 38.7415C80.7201 38.2306 80.8441 37.7136 81.1343 37.2874C81.4245 36.8612 81.861 36.555 82.3621 36.4261L83.8662 36.0286C84.3885 35.8928 84.8392 35.5644 85.127 35.1101C85.4147 34.6558 85.518 34.1096 85.4159 33.5819C84.9375 31.31 84.3032 29.0731 83.5175 26.8871C83.3396 26.3894 82.9782 25.9774 82.5065 25.7346C82.0349 25.4917 81.4883 25.4363 80.9775 25.5794L79.236 26.0562C78.7605 26.1572 78.2644 26.0961 77.8277 25.8826C77.391 25.6692 77.0391 25.3158 76.8285 24.8795C76.3502 24.0399 75.8454 23.1741 75.3407 22.3609C75.1698 22.0887 74.939 21.8587 74.6657 21.6881C74.3925 21.5175 74.0839 21.4108 73.7633 21.3761C73.4427 21.3414 73.1184 21.3796 72.815 21.4878C72.5116 21.596 72.2369 21.7714 72.0117 22.0007L51.7984 42.2228C51.5841 42.4228 51.413 42.6642 51.2956 42.9322C51.2124 43.1222 51.1573 43.3228 51.1318 43.5276Z" fill="#06D6D6"/>
<path d="M34.3223 43.6362C34.2968 43.4313 34.2417 43.2307 34.1585 43.0407C34.0411 42.7727 33.87 42.5313 33.6557 42.3313L13.4424 22.1092C13.2172 21.8799 12.9425 21.7045 12.6391 21.5963C12.3356 21.4881 12.0114 21.45 11.6908 21.4846C11.3702 21.5193 11.0616 21.626 10.7883 21.7966C10.5151 21.9672 10.2843 22.1973 10.1133 22.4694C9.6087 23.2827 9.10388 24.1485 8.62556 24.988C8.415 25.4244 8.06304 25.7777 7.62634 25.9911C7.18964 26.2046 6.6936 26.2657 6.21808 26.1647L4.47662 25.6879C3.96582 25.5448 3.4192 25.6003 2.94755 25.8431C2.4759 26.0859 2.1145 26.498 1.93662 26.9957C1.15083 29.1817 0.516533 31.4185 0.0381796 33.6904C-0.0639118 34.2181 0.0393739 34.7644 0.327119 35.2187C0.614864 35.6729 1.06556 36.0013 1.58793 36.1371L3.09197 36.5346C3.59311 36.6636 4.02961 36.9698 4.31982 37.396C4.61001 37.8221 4.73401 38.3391 4.66858 38.8501C4.46046 40.4387 4.34172 42.0365 4.31261 43.6362C4.34173 45.2358 4.46047 46.8336 4.66859 48.4222C4.73402 48.9332 4.61003 49.4502 4.31983 49.8763C4.02963 50.3025 3.59311 50.6087 3.09198 50.7377L1.58793 51.1351C1.06557 51.271 0.614872 51.5993 0.327127 52.0536C0.0393863 52.5079 -0.0639045 53.0542 0.0381917 53.5819C0.51654 55.8538 1.15084 58.0906 1.93663 60.2766C2.11451 60.7743 2.4759 61.1863 2.94756 61.4292C3.41921 61.672 3.96583 61.7275 4.47663 61.5844L6.21809 61.1075C6.69361 61.0066 7.18964 61.0677 7.62634 61.2812C8.06305 61.4946 8.41501 61.8479 8.62557 62.2843C9.10389 63.1238 9.60871 63.9896 10.1133 64.8029C10.2843 65.075 10.5151 65.3051 10.7883 65.4757C11.0616 65.6463 11.3702 65.753 11.6908 65.7877C12.0114 65.8223 12.3356 65.7841 12.6391 65.676C12.9425 65.5678 13.2172 65.3924 13.4424 65.1631L33.6557 44.941C33.87 44.741 34.0411 44.4996 34.1585 44.2315C34.2417 44.0416 34.2968 43.841 34.3223 43.6362Z" fill="#0FBAFF"/>
<path d="M120 5.96021H169.384V19.4026H136.107V36.7987H165.972V49.6764H136.107V81.9834H120V5.96021Z" fill="#003154"/>
<path d="M206.396 83C200.468 83 195.211 82.1528 190.625 80.4584C186.076 78.764 182.478 76.1094 179.831 72.4946C177.221 68.8798 175.953 64.2861 176.028 58.7133H192.47C192.619 62.7799 193.924 65.6981 196.385 67.4678C198.846 69.1999 202.276 70.0659 206.676 70.0659C210.74 70.0659 213.965 69.3505 216.351 67.9197C218.775 66.4512 219.987 64.2861 219.987 61.4244C219.987 59.4287 219.502 57.7719 218.533 56.4541C217.563 55.1362 215.885 53.9501 213.499 52.8958C211.15 51.8415 207.683 50.6554 203.097 49.3375C197.355 47.7184 192.694 46.0051 189.115 44.1977C185.535 42.3903 182.739 40.0558 180.725 37.1941C178.749 34.2948 177.761 30.6235 177.761 26.1803C177.761 19.0638 180.259 13.7546 185.256 10.2528C190.289 6.75094 197.075 5.00004 205.613 5.00004C210.982 5.00004 215.811 5.8096 220.099 7.42871C224.386 9.04783 227.779 11.5142 230.277 14.8277C232.813 18.1036 234.081 22.1514 234.081 26.9711H217.638C217.787 23.9588 216.687 21.6431 214.338 20.0239C212.026 18.4048 209.099 17.5953 205.557 17.5953C202.127 17.5953 199.368 18.2354 197.28 19.5156C195.192 20.7582 194.148 22.6032 194.148 25.0507C194.148 26.5945 194.614 27.9312 195.546 29.0609C196.516 30.1528 198.231 31.2448 200.692 32.3368C203.19 33.4287 206.844 34.6713 211.654 36.0645C217.806 37.8719 222.597 39.7169 226.027 41.5996C229.494 43.4823 232.086 45.8921 233.801 48.8291C235.516 51.7661 236.374 55.6257 236.374 60.4077C236.374 68.0515 233.652 73.7372 228.208 77.4649C222.765 81.155 215.494 83 206.396 83Z" fill="#003154"/>
<path d="M273.522 5.96021C281.575 5.96021 288.473 7.46637 294.215 10.4787C299.994 13.4533 304.394 17.7835 307.414 23.4693C310.471 29.1173 312 35.8762 312 43.7459C312 51.8791 310.453 58.8074 307.358 64.5308C304.3 70.2542 299.882 74.6032 294.103 77.5779C288.361 80.5149 281.501 81.9834 273.522 81.9834H245.278V5.96021H273.522ZM271.9 68.428C279.804 68.428 285.695 66.3947 289.573 62.3281C293.451 58.2614 295.389 52.0486 295.389 43.6894C295.389 35.8197 293.339 29.8139 289.237 25.672C285.136 21.5301 279.357 19.4591 271.9 19.4591H261.385V68.428H271.9Z" fill="#003154"/>
</svg>
